<?xml version="1.0" encoding="UTF-8" standalone="no"?><svg width="25" height="25" viewBox="0 0 25 25" fill="none" xmlns="http://www.w3.org/2000/svg">
<mask id="mask0_2091_263" style="mask-type:alpha" maskUnits="userSpaceOnUse" x="0" y="0" width="25" height="25">
<rect x="0.125" y="0.217407" width="24" height="24" fill="#D9D9D9"/>
</mask>
<g mask="url(#mask0_2091_263)">
<path d="M12.125 22.2174C10.7417 22.2174 9.44167 21.9549 8.225 21.4299C7.00833 20.9049 5.95 20.1924 5.05 19.2924C4.15 18.3924 3.4375 17.3341 2.9125 16.1174C2.3875 14.9007 2.125 13.6007 2.125 12.2174C2.125 10.8341 2.3875 9.53407 2.9125 8.31741C3.4375 7.10074 4.15 6.04241 5.05 5.14241C5.95 4.24241 7.00833 3.52991 8.225 3.00491C9.44167 2.47991 10.7417 2.21741 12.125 2.21741C13.5083 2.21741 14.8083 2.47991 16.025 3.00491C17.2417 3.52991 18.3 4.24241 19.2 5.14241C20.1 6.04241 20.8125 7.10074 21.3375 8.31741C21.8625 9.53407 22.125 10.8341 22.125 12.2174C22.125 13.6007 21.8625 14.9007 21.3375 16.1174C20.8125 17.3341 20.1 18.3924 19.2 19.2924C18.3 20.1924 17.2417 20.9049 16.025 21.4299C14.8083 21.9549 13.5083 22.2174 12.125 22.2174ZM12.125 20.2174C14.3583 20.2174 16.25 19.4424 17.8 17.8924C19.35 16.3424 20.125 14.4507 20.125 12.2174C20.125 9.98407 19.35 8.09241 17.8 6.54241C16.25 4.99241 14.3583 4.21741 12.125 4.21741C9.89167 4.21741 8 4.99241 6.45 6.54241C4.9 8.09241 4.125 9.98407 4.125 12.2174C4.125 14.4507 4.9 16.3424 6.45 17.8924C8 19.4424 9.89167 20.2174 12.125 20.2174Z" fill="white"/>
</g>
</svg>
