<?xml version="1.0" encoding="UTF-8" standalone="no"?><svg width="24" height="24" viewBox="0 0 24 24" fill="none" xmlns="http://www.w3.org/2000/svg">
<mask id="mask0_2062_191" style="mask-type:alpha" maskUnits="userSpaceOnUse" x="0" y="0" width="24" height="24">
<rect width="24" height="24" fill="#D9D9D9"/>
</mask>
<g mask="url(#mask0_2062_191)">
<path d="M5.99997 15.0478C5.70309 15.0478 5.45423 14.9474 5.2534 14.7465C5.05257 14.5457 4.95215 14.2969 4.95215 14C4.95215 13.7031 5.05257 13.4542 5.2534 13.2534C5.45423 13.0526 5.70309 12.9521 5.99997 12.9521C6.29686 12.9521 6.54572 13.0526 6.74655 13.2534C6.94738 13.4542 7.0478 13.7031 7.0478 14C7.0478 14.2969 6.94738 14.5457 6.74655 14.7465C6.54572 14.9474 6.29686 15.0478 5.99997 15.0478ZM5.99997 19.0478C5.70309 19.0478 5.45423 18.9474 5.2534 18.7465C5.05257 18.5457 4.95215 18.2969 4.95215 18C4.95215 17.7031 5.05257 17.4542 5.2534 17.2534C5.45423 17.0526 5.70309 16.9521 5.99997 16.9521C6.29686 16.9521 6.54572 17.0526 6.74655 17.2534C6.94738 17.4542 7.0478 17.7031 7.0478 18C7.0478 18.2969 6.94738 18.5457 6.74655 18.7465C6.54572 18.9474 6.29686 19.0478 5.99997 19.0478ZM5.99997 11.0478C5.70309 11.0478 5.45423 10.9474 5.2534 10.7465C5.05257 10.5457 4.95215 10.2969 4.95215 9.99997C4.95215 9.70309 5.05257 9.45423 5.2534 9.2534C5.45423 9.05257 5.70309 8.95215 5.99997 8.95215C6.29686 8.95215 6.54572 9.05257 6.74655 9.2534C6.94738 9.45423 7.0478 9.70309 7.0478 9.99997C7.0478 10.2969 6.94738 10.5457 6.74655 10.7465C6.54572 10.9474 6.29686 11.0478 5.99997 11.0478ZM2.99997 10.5478C2.85069 10.5478 2.72207 10.4938 2.6141 10.3858C2.50613 10.2779 2.45215 10.1493 2.45215 9.99997C2.45215 9.85069 2.50613 9.72207 2.6141 9.6141C2.72207 9.50613 2.85069 9.45215 2.99997 9.45215C3.14926 9.45215 3.27788 9.50613 3.38585 9.6141C3.49382 9.72207 3.5478 9.85069 3.5478 9.99997C3.5478 10.1493 3.49382 10.2779 3.38585 10.3858C3.27788 10.4938 3.14926 10.5478 2.99997 10.5478ZM5.99997 7.0478C5.70309 7.0478 5.45423 6.94738 5.2534 6.74655C5.05257 6.54572 4.95215 6.29686 4.95215 5.99997C4.95215 5.70309 5.05257 5.45423 5.2534 5.2534C5.45423 5.05257 5.70309 4.95215 5.99997 4.95215C6.29686 4.95215 6.54572 5.05257 6.74655 5.2534C6.94738 5.45423 7.0478 5.70309 7.0478 5.99997C7.0478 6.29686 6.94738 6.54572 6.74655 6.74655C6.54572 6.94738 6.29686 7.0478 5.99997 7.0478ZM2.99997 14.5478C2.85069 14.5478 2.72207 14.4938 2.6141 14.3858C2.50613 14.2779 2.45215 14.1493 2.45215 14C2.45215 13.8507 2.50613 13.7221 2.6141 13.6141C2.72207 13.5061 2.85069 13.4521 2.99997 13.4521C3.14926 13.4521 3.27788 13.5061 3.38585 13.6141C3.49382 13.7221 3.5478 13.8507 3.5478 14C3.5478 14.1493 3.49382 14.2779 3.38585 14.3858C3.27788 14.4938 3.14926 14.5478 2.99997 14.5478ZM9.99997 21.5478C9.85069 21.5478 9.72207 21.4938 9.6141 21.3858C9.50613 21.2779 9.45215 21.1493 9.45215 21C9.45215 20.8507 9.50613 20.7221 9.6141 20.6141C9.72207 20.5061 9.85069 20.4521 9.99997 20.4521C10.1493 20.4521 10.2779 20.5061 10.3858 20.6141C10.4938 20.7221 10.5478 20.8507 10.5478 21C10.5478 21.1493 10.4938 21.2779 10.3858 21.3858C10.2779 21.4938 10.1493 21.5478 9.99997 21.5478ZM9.99997 3.5478C9.85069 3.5478 9.72207 3.49382 9.6141 3.38585C9.50613 3.27788 9.45215 3.14926 9.45215 2.99997C9.45215 2.85069 9.50613 2.72207 9.6141 2.6141C9.72207 2.50613 9.85069 2.45215 9.99997 2.45215C10.1493 2.45215 10.2779 2.50613 10.3858 2.6141C10.4938 2.72207 10.5478 2.85069 10.5478 2.99997C10.5478 3.14926 10.4938 3.27788 10.3858 3.38585C10.2779 3.49382 10.1493 3.5478 9.99997 3.5478ZM9.99997 7.0478C9.70309 7.0478 9.45423 6.94738 9.2534 6.74655C9.05257 6.54572 8.95215 6.29686 8.95215 5.99997C8.95215 5.70309 9.05257 5.45423 9.2534 5.2534C9.45423 5.05257 9.70309 4.95215 9.99997 4.95215C10.2969 4.95215 10.5457 5.05257 10.7465 5.2534C10.9474 5.45423 11.0478 5.70309 11.0478 5.99997C11.0478 6.29686 10.9474 6.54572 10.7465 6.74655C10.5457 6.94738 10.2969 7.0478 9.99997 7.0478ZM9.99997 15.5478C9.56736 15.5478 9.20123 15.398 8.9016 15.0983C8.60197 14.7987 8.45215 14.4326 8.45215 14C8.45215 13.5674 8.60197 13.2012 8.9016 12.9016C9.20123 12.602 9.56736 12.4521 9.99997 12.4521C10.4326 12.4521 10.7987 12.602 11.0983 12.9016C11.398 13.2012 11.5478 13.5674 11.5478 14C11.5478 14.4326 11.398 14.7987 11.0983 15.0983C10.7987 15.398 10.4326 15.5478 9.99997 15.5478ZM9.99997 11.5478C9.56736 11.5478 9.20123 11.398 8.9016 11.0983C8.60197 10.7987 8.45215 10.4326 8.45215 9.99997C8.45215 9.56736 8.60197 9.20123 8.9016 8.9016C9.20123 8.60197 9.56736 8.45215 9.99997 8.45215C10.4326 8.45215 10.7987 8.60197 11.0983 8.9016C11.398 9.20123 11.5478 9.56736 11.5478 9.99997C11.5478 10.4326 11.398 10.7987 11.0983 11.0983C10.7987 11.398 10.4326 11.5478 9.99997 11.5478ZM9.99997 19.0478C9.70309 19.0478 9.45423 18.9474 9.2534 18.7465C9.05257 18.5457 8.95215 18.2969 8.95215 18C8.95215 17.7031 9.05257 17.4542 9.2534 17.2534C9.45423 17.0526 9.70309 16.9521 9.99997 16.9521C10.2969 16.9521 10.5457 17.0526 10.7465 17.2534C10.9474 17.4542 11.0478 17.7031 11.0478 18C11.0478 18.2969 10.9474 18.5457 10.7465 18.7465C10.5457 18.9474 10.2969 19.0478 9.99997 19.0478ZM12 21.2032V18.9282C13.9174 18.9282 15.5514 18.2529 16.9021 16.9021C18.2529 15.5514 18.9282 13.9174 18.9282 12C18.9282 10.0826 18.2529 8.44853 16.9021 7.0978C15.5514 5.74708 13.9174 5.07172 12 5.07172V2.7967C13.2652 2.7967 14.4555 3.03937 15.5709 3.5247C16.6863 4.01003 17.6612 4.66991 18.4956 5.50432C19.33 6.33874 19.9899 7.31365 20.4752 8.42905C20.9606 9.54445 21.2032 10.7348 21.2032 12C21.2032 13.2652 20.9606 14.4555 20.4752 15.5709C19.9899 16.6863 19.33 17.6612 18.4956 18.4956C17.6612 19.33 16.6863 19.9899 15.5709 20.4752C14.4555 20.9606 13.2652 21.2032 12 21.2032Z" fill="white"/>
</g>
</svg>
