<?xml version="1.0" encoding="UTF-8" standalone="no"?><svg width="25" height="24" viewBox="0 0 25 24" fill="none" xmlns="http://www.w3.org/2000/svg">
<mask id="mask0_2062_155" style="mask-type:alpha" maskUnits="userSpaceOnUse" x="0" y="0" width="25" height="24">
<rect x="0.537109" width="24" height="24" fill="#D9D9D9"/>
</mask>
<g mask="url(#mask0_2062_155)">
<path d="M7.53711 21V19H11.5371V15.9C10.7204 15.7167 9.99128 15.3708 9.34961 14.8625C8.70794 14.3542 8.23711 13.7167 7.93711 12.95C6.68711 12.8 5.64128 12.2542 4.79961 11.3125C3.95794 10.3708 3.53711 9.26667 3.53711 8V7C3.53711 6.45 3.73294 5.97917 4.12461 5.5875C4.51628 5.19583 4.98711 5 5.53711 5H7.53711V3H17.5371V5H19.5371C20.0871 5 20.5579 5.19583 20.9496 5.5875C21.3413 5.97917 21.5371 6.45 21.5371 7V8C21.5371 9.26667 21.1163 10.3708 20.2746 11.3125C19.4329 12.2542 18.3871 12.8 17.1371 12.95C16.8371 13.7167 16.3663 14.3542 15.7246 14.8625C15.0829 15.3708 14.3538 15.7167 13.5371 15.9V19H17.5371V21H7.53711ZM7.53711 10.8V7H5.53711V8C5.53711 8.63333 5.72044 9.20417 6.08711 9.7125C6.45378 10.2208 6.93711 10.5833 7.53711 10.8ZM12.5371 14C13.3704 14 14.0788 13.7083 14.6621 13.125C15.2454 12.5417 15.5371 11.8333 15.5371 11V5H9.53711V11C9.53711 11.8333 9.82878 12.5417 10.4121 13.125C10.9954 13.7083 11.7038 14 12.5371 14ZM17.5371 10.8C18.1371 10.5833 18.6204 10.2208 18.9871 9.7125C19.3538 9.20417 19.5371 8.63333 19.5371 8V7H17.5371V10.8Z" fill="white"/>
</g>
</svg>
