<?xml version="1.0" encoding="UTF-8" standalone="no"?><svg width="24" height="24" viewBox="0 0 24 24" fill="none" xmlns="http://www.w3.org/2000/svg">
<mask id="mask0_836_126" style="mask-type:alpha" maskUnits="userSpaceOnUse" x="0" y="0" width="24" height="24">
<rect width="24" height="24" fill="#2E2E2E"/>
</mask>
<g mask="url(#mask0_836_126)">
<path d="M6.07166 22.1854C5.44602 22.1854 4.91045 21.9626 4.46493 21.5171C4.0194 21.0716 3.79663 20.536 3.79663 19.9104V10.0539C3.79663 9.42824 4.0194 8.89266 4.46493 8.44713C4.91045 8.00161 5.44602 7.77885 6.07166 7.77885H6.91023V5.95223C6.91023 4.53701 7.40571 3.33194 8.39666 2.33701C9.38759 1.34207 10.5887 0.844604 11.9999 0.844604C13.4111 0.844604 14.6122 1.34207 15.6032 2.33701C16.5941 3.33194 17.0896 4.53701 17.0896 5.95223V7.77885H17.9282C18.5538 7.77885 19.0894 8.00161 19.5349 8.44713C19.9804 8.89266 20.2032 9.42824 20.2032 10.0539V19.9104C20.2032 20.536 19.9804 21.0716 19.5349 21.5171C19.0894 21.9626 18.5538 22.1854 17.9282 22.1854H6.07166ZM11.9999 16.9821C12.5499 16.9821 13.0207 16.7863 13.4124 16.3946C13.8041 16.003 13.9999 15.5321 13.9999 14.9821C13.9999 14.4321 13.8041 13.9613 13.4124 13.5696C13.0207 13.178 12.5499 12.9821 11.9999 12.9821C11.4499 12.9821 10.9791 13.178 10.5874 13.5696C10.1957 13.9613 9.99991 14.4321 9.99991 14.9821C9.99991 15.5321 10.1957 16.003 10.5874 16.3946C10.9791 16.7863 11.4499 16.9821 11.9999 16.9821ZM9.18523 7.77885H14.8146V5.95223C14.8146 5.1654 14.5418 4.49659 13.9964 3.94581C13.4509 3.39502 12.7854 3.11963 11.9999 3.11963C11.2144 3.11963 10.5489 3.39502 10.0034 3.94581C9.45796 4.49659 9.18523 5.1654 9.18523 5.95223V7.77885Z" fill="#2E2E2E"/>
</g>
</svg>
