<?xml version="1.0" encoding="UTF-8" standalone="no"?><svg width="25" height="25" viewBox="0 0 25 25" fill="none" xmlns="http://www.w3.org/2000/svg">
<mask id="mask0_2062_125" style="mask-type:alpha" maskUnits="userSpaceOnUse" x="0" y="0" width="25" height="25">
<rect x="0.537109" y="0.16394" width="24" height="24" fill="#D9D9D9"/>
</mask>
<g mask="url(#mask0_2062_125)">
<path d="M2.53711 10.1639C2.53711 8.49723 2.90794 6.96806 3.64961 5.57639C4.39128 4.18473 5.38711 3.03056 6.63711 2.11389L7.81211 3.71389C6.81211 4.44723 6.01628 5.37223 5.42461 6.48889C4.83294 7.60556 4.53711 8.83056 4.53711 10.1639H2.53711ZM20.5371 10.1639C20.5371 8.83056 20.2413 7.60556 19.6496 6.48889C19.0579 5.37223 18.2621 4.44723 17.2621 3.71389L18.4371 2.11389C19.6871 3.03056 20.6829 4.18473 21.4246 5.57639C22.1663 6.96806 22.5371 8.49723 22.5371 10.1639H20.5371ZM4.53711 19.1639V17.1639H6.53711V10.1639C6.53711 8.78056 6.95378 7.55139 7.78711 6.47639C8.62044 5.40139 9.70378 4.69723 11.0371 4.36389V3.66389C11.0371 3.24723 11.1829 2.89306 11.4746 2.60139C11.7663 2.30972 12.1204 2.16389 12.5371 2.16389C12.9538 2.16389 13.3079 2.30972 13.5996 2.60139C13.8913 2.89306 14.0371 3.24723 14.0371 3.66389V4.36389C15.3704 4.69723 16.4538 5.40139 17.2871 6.47639C18.1204 7.55139 18.5371 8.78056 18.5371 10.1639V17.1639H20.5371V19.1639H4.53711ZM12.5371 22.1639C11.9871 22.1639 11.5163 21.9681 11.1246 21.5764C10.7329 21.1847 10.5371 20.7139 10.5371 20.1639H14.5371C14.5371 20.7139 14.3413 21.1847 13.9496 21.5764C13.5579 21.9681 13.0871 22.1639 12.5371 22.1639ZM8.53711 17.1639H16.5371V10.1639C16.5371 9.06389 16.1454 8.12223 15.3621 7.33889C14.5788 6.55556 13.6371 6.16389 12.5371 6.16389C11.4371 6.16389 10.4954 6.55556 9.71211 7.33889C8.92878 8.12223 8.53711 9.06389 8.53711 10.1639V17.1639Z" fill="white"/>
</g>
</svg>
