<?xml version="1.0" encoding="UTF-8" standalone="no"?><svg width="30" height="30" viewBox="0 0 30 30" fill="none" xmlns="http://www.w3.org/2000/svg">
<path fill-rule="evenodd" clip-rule="evenodd" d="M26.25 1.875H3.75C2.71447 1.875 1.875 2.71447 1.875 3.75V26.25C1.875 27.2855 2.71447 28.125 3.75 28.125H26.25C27.2855 28.125 28.125 27.2855 28.125 26.25V3.75C28.125 2.71447 27.2855 1.875 26.25 1.875ZM3.75 0C1.67893 0 0 1.67893 0 3.75V26.25C0 28.3211 1.67893 30 3.75 30H26.25C28.3211 30 30 28.3211 30 26.25V3.75C30 1.67893 28.3211 0 26.25 0H3.75Z" fill="white"/>
<path d="M3.75 9.375C3.75 8.33947 4.58947 7.5 5.625 7.5H24.375C25.4105 7.5 26.25 8.33947 26.25 9.375V20.625C26.25 21.6605 25.4105 22.5 24.375 22.5H5.625C4.58947 22.5 3.75 21.6605 3.75 20.625V9.375Z" fill="white"/>
</svg>
