<?xml version="1.0" encoding="UTF-8" standalone="no"?><svg width="66" height="66" viewBox="0 0 66 66" fill="none" xmlns="http://www.w3.org/2000/svg">
<path fill-rule="evenodd" clip-rule="evenodd" d="M-2.88495e-06 0L0 66L66 66L66 -2.88495e-06L-2.88495e-06 0ZM39 5.4641C35.2872 3.32051 30.7128 3.32051 27 5.4641L12.1532 14.0359C8.4404 16.1795 6.15321 20.141 6.15321 24.4282L6.15321 41.5718C6.15321 45.859 8.4404 49.8205 12.1532 51.9641L27 60.5359C30.7128 62.6795 35.2872 62.6795 39 60.5359L53.8468 51.9641C57.5596 49.8205 59.8468 45.859 59.8468 41.5718L59.8468 24.4282C59.8468 20.141 57.5596 16.1795 53.8468 14.0359L39 5.4641Z" fill="#2F2F2F"/>
<path d="M54.0968 13.6029L39.25 5.03109C35.3825 2.79818 30.6175 2.79818 26.75 5.03109L11.9032 13.6029C8.0357 15.8358 5.65321 19.9624 5.65321 24.4282V41.5718C5.65321 46.0376 8.0357 50.1642 11.9032 52.3971L26.75 60.9689C30.6175 63.2018 35.3825 63.2018 39.25 60.9689L54.0968 52.3971C57.9643 50.1642 60.3468 46.0376 60.3468 41.5718V24.4282C60.3468 19.9624 57.9643 15.8358 54.0968 13.6029Z" stroke="#727272"/>
</svg>
