<?xml version="1.0" encoding="UTF-8" standalone="no"?><svg width="30" height="30" viewBox="0 0 30 30" fill="none" xmlns="http://www.w3.org/2000/svg">
<path fill-rule="evenodd" clip-rule="evenodd" d="M26.25 1.875H3.75C2.71447 1.875 1.875 2.71447 1.875 3.75V26.25C1.875 27.2855 2.71447 28.125 3.75 28.125H26.25C27.2855 28.125 28.125 27.2855 28.125 26.25V3.75C28.125 2.71447 27.2855 1.875 26.25 1.875ZM3.75 0C1.67893 0 0 1.67893 0 3.75V26.25C0 28.3211 1.67893 30 3.75 30H26.25C28.3211 30 30 28.3211 30 26.25V3.75C30 1.67893 28.3211 0 26.25 0H3.75Z" fill="white"/>
<path d="M4 8.625C4 8.27982 4.82081 8 5.83333 8H24.1667C25.1792 8 26 8.27982 26 8.625V12.375C26 12.7202 25.1792 13 24.1667 13H5.83333C4.82081 13 4 12.7202 4 12.375V8.625Z" fill="white"/>
<path d="M4 17.625C4 17.2798 4.82081 17 5.83333 17H24.1667C25.1792 17 26 17.2798 26 17.625V21.375C26 21.7202 25.1792 22 24.1667 22H5.83333C4.82081 22 4 21.7202 4 21.375V17.625Z" fill="white"/>
</svg>
