<?xml version="1.0" encoding="UTF-8" standalone="no"?><svg width="31" height="30" viewBox="0 0 31 30" fill="none" xmlns="http://www.w3.org/2000/svg">
<path fill-rule="evenodd" clip-rule="evenodd" d="M26.75 1.875H4.25C3.21447 1.875 2.375 2.71447 2.375 3.75V26.25C2.375 27.2855 3.21447 28.125 4.25 28.125H26.75C27.7855 28.125 28.625 27.2855 28.625 26.25V3.75C28.625 2.71447 27.7855 1.875 26.75 1.875ZM4.25 0C2.17893 0 0.5 1.67893 0.5 3.75V26.25C0.5 28.3211 2.17893 30 4.25 30H26.75C28.8211 30 30.5 28.3211 30.5 26.25V3.75C30.5 1.67893 28.8211 0 26.75 0H4.25Z" fill="white"/>
<path d="M4.25 5.625C4.25 4.58947 5.08947 3.75 6.125 3.75H24.875C25.9105 3.75 26.75 4.58947 26.75 5.625V24.375C26.75 25.4105 25.9105 26.25 24.875 26.25H6.125C5.08947 26.25 4.25 25.4105 4.25 24.375V5.625Z" fill="white"/>
</svg>
