<?xml version="1.0" encoding="UTF-8" standalone="no"?><svg width="44" height="45" viewBox="0 0 44 45" fill="none" xmlns="http://www.w3.org/2000/svg">
<mask id="mask0_1320_3245" style="mask-type:alpha" maskUnits="userSpaceOnUse" x="0" y="0" width="44" height="45">
<rect x="0.108398" y="0.36792" width="43.6417" height="43.6417" fill="#D9D9D9"/>
</mask>
<g mask="url(#mask0_1320_3245)">
<path d="M11.0219 27.5229C10.5248 27.5229 10.107 27.3547 9.76856 27.0185C9.43013 26.6821 9.26091 26.2654 9.26091 25.7683C9.26091 25.2712 9.42906 24.8534 9.76538 24.515C10.1017 24.1765 10.5184 24.0073 11.0155 24.0073C11.5127 24.0073 11.9304 24.1755 12.2689 24.5117C12.6073 24.8481 12.7765 25.2648 12.7765 25.7619C12.7765 26.259 12.6084 26.6768 12.2721 27.0153C11.9358 27.3537 11.519 27.5229 11.0219 27.5229ZM11.0219 34.8571C10.5248 34.8571 10.107 34.689 9.76856 34.3527C9.43013 34.0164 9.26091 33.5997 9.26091 33.1025C9.26091 32.6054 9.42906 32.1876 9.76538 31.8492C10.1017 31.5108 10.5184 31.3415 11.0155 31.3415C11.5127 31.3415 11.9304 31.5097 12.2689 31.846C12.6073 32.1823 12.7765 32.599 12.7765 33.0962C12.7765 33.5933 12.6084 34.0111 12.2721 34.3495C11.9358 34.6879 11.519 34.8571 11.0219 34.8571ZM11.0219 20.3705C10.5248 20.3705 10.107 20.2024 9.76856 19.8661C9.43013 19.5298 9.26091 19.113 9.26091 18.6159C9.26091 18.1188 9.42906 17.701 9.76538 17.3625C10.1017 17.0241 10.5184 16.8549 11.0155 16.8549C11.5127 16.8549 11.9304 17.0231 12.2689 17.3594C12.6073 17.6957 12.7765 18.1124 12.7765 18.6095C12.7765 19.1067 12.6084 19.5244 12.2721 19.8629C11.9358 20.2013 11.519 20.3705 11.0219 20.3705ZM5.59382 19.5522C5.33115 19.5522 5.1089 19.4613 4.92706 19.2795C4.74522 19.0976 4.6543 18.8754 4.6543 18.6127C4.6543 18.3501 4.74522 18.1278 4.92706 17.946C5.1089 17.7641 5.33115 17.6732 5.59382 17.6732C5.85646 17.6732 6.0787 17.7641 6.26054 17.946C6.44238 18.1278 6.5333 18.3501 6.5333 18.6127C6.5333 18.8754 6.44238 19.0976 6.26054 19.2795C6.0787 19.4613 5.85646 19.5522 5.59382 19.5522ZM11.0219 13.0363C10.5248 13.0363 10.107 12.8681 9.76856 12.5318C9.43013 12.1955 9.26091 11.7788 9.26091 11.2817C9.26091 10.7845 9.42906 10.3668 9.76538 10.0283C10.1017 9.68989 10.5184 9.52067 11.0155 9.52067C11.5127 9.52067 11.9304 9.68883 12.2689 10.0251C12.6073 10.3614 12.7765 10.7781 12.7765 11.2753C12.7765 11.7724 12.6084 12.1902 12.2721 12.5286C11.9358 12.8671 11.519 13.0363 11.0219 13.0363ZM5.59382 26.7046C5.33115 26.7046 5.1089 26.6137 4.92706 26.4318C4.74522 26.25 4.6543 26.0278 4.6543 25.7651C4.6543 25.5025 4.74522 25.2802 4.92706 25.0984C5.1089 24.9165 5.33115 24.8256 5.59382 24.8256C5.85646 24.8256 6.0787 24.9165 6.26054 25.0984C6.44238 25.2802 6.5333 25.5025 6.5333 25.7651C6.5333 26.0278 6.44238 26.25 6.26054 26.4318C6.0787 26.6137 5.85646 26.7046 5.59382 26.7046ZM18.3529 39.4638C18.0903 39.4638 17.8681 39.3728 17.6862 39.191C17.5044 39.0092 17.4135 38.7869 17.4135 38.5242C17.4135 38.2616 17.5044 38.0394 17.6862 37.8575C17.8681 37.6757 18.0903 37.5848 18.3529 37.5848C18.6156 37.5848 18.8379 37.6757 19.0197 37.8575C19.2015 38.0394 19.2925 38.2616 19.2925 38.5242C19.2925 38.7869 19.2015 39.0092 19.0197 39.191C18.8379 39.3728 18.6156 39.4638 18.3529 39.4638ZM18.3529 6.79307C18.0903 6.79307 17.8681 6.70215 17.6862 6.5203C17.5044 6.33846 17.4135 6.11623 17.4135 5.85359C17.4135 5.59092 17.5044 5.36866 17.6862 5.18682C17.8681 5.00498 18.0903 4.91406 18.3529 4.91406C18.6156 4.91406 18.8379 5.00498 19.0197 5.18682C19.2015 5.36866 19.2925 5.59092 19.2925 5.85359C19.2925 6.11623 19.2015 6.33846 19.0197 6.5203C18.8379 6.70215 18.6156 6.79307 18.3529 6.79307ZM18.3562 13.0363C17.859 13.0363 17.4412 12.8681 17.1028 12.5318C16.7644 12.1955 16.5952 11.7788 16.5952 11.2817C16.5952 10.7845 16.7633 10.3668 17.0996 10.0283C17.4359 9.68989 17.8526 9.52067 18.3498 9.52067C18.8469 9.52067 19.2647 9.68883 19.6031 10.0251C19.9415 10.3614 20.1107 10.7781 20.1107 11.2753C20.1107 11.7724 19.9426 12.1902 19.6063 12.5286C19.27 12.8671 18.8533 13.0363 18.3562 13.0363ZM18.3529 28.3109C17.6458 28.3109 17.0447 28.0634 16.5497 27.5683C16.0547 27.0733 15.8072 26.4723 15.8072 25.7651C15.8072 25.0579 16.0547 24.4569 16.5497 23.9619C17.0447 23.4669 17.6458 23.2194 18.3529 23.2194C19.0601 23.2194 19.6612 23.4669 20.1562 23.9619C20.6512 24.4569 20.8987 25.0579 20.8987 25.7651C20.8987 26.4723 20.6512 27.0733 20.1562 27.5683C19.6612 28.0634 19.0601 28.3109 18.3529 28.3109ZM18.3529 21.1585C17.6458 21.1585 17.0447 20.911 16.5497 20.416C16.0547 19.921 15.8072 19.3199 15.8072 18.6127C15.8072 17.9056 16.0547 17.3045 16.5497 16.8095C17.0447 16.3144 17.6458 16.0669 18.3529 16.0669C19.0601 16.0669 19.6612 16.3144 20.1562 16.8095C20.6512 17.3045 20.8987 17.9056 20.8987 18.6127C20.8987 19.3199 20.6512 19.921 20.1562 20.416C19.6612 20.911 19.0601 21.1585 18.3529 21.1585ZM18.3562 34.8571C17.859 34.8571 17.4412 34.689 17.1028 34.3527C16.7644 34.0164 16.5952 33.5997 16.5952 33.1025C16.5952 32.6054 16.7633 32.1876 17.0996 31.8492C17.4359 31.5108 17.8526 31.3415 18.3498 31.3415C18.8469 31.3415 19.2647 31.5097 19.6031 31.846C19.9415 32.1823 20.1107 32.599 20.1107 33.0962C20.1107 33.5933 19.9426 34.0111 19.6063 34.3495C19.27 34.6879 18.8533 34.8571 18.3562 34.8571ZM22.2322 38.2515V35.2208C25.768 35.1198 28.7734 33.812 31.2485 31.2976C33.7235 28.7832 34.9611 25.7475 34.9611 22.1905C34.9611 18.6334 33.7235 15.5972 31.2485 13.0817C28.7734 10.5663 25.768 9.25804 22.2322 9.15699V6.12635C24.4143 6.16675 26.4575 6.61882 28.3618 7.48256C30.266 8.3463 31.9354 9.50049 33.37 10.9451C34.8045 12.3897 35.9334 14.0785 36.7567 16.0114C37.58 17.9443 37.9917 20.0027 37.9917 22.1864C37.9917 24.3702 37.58 26.4293 36.7567 28.3639C35.9334 30.2985 34.8045 31.9881 33.37 33.4327C31.9354 34.8773 30.266 36.0315 28.3618 36.8953C26.4575 37.759 24.4143 38.2111 22.2322 38.2515Z" fill="white"/>
</g>
</svg>
