<?xml version="1.0" encoding="UTF-8" standalone="no"?><svg width="853" height="181" viewBox="0 0 853 181" fill="none" xmlns="http://www.w3.org/2000/svg">
<path fill-rule="evenodd" clip-rule="evenodd" d="M0 85.7117V177.056H34.5296V117.058H113.14V85.7117H34.8497H34.5296H0ZM34.8497 35.5092H126.853V3.42847H34.8497V35.5092ZM234.248 180.484C290.572 180.484 327.796 143.016 327.796 90.3647C327.796 35.9989 288.613 0 234.248 0C178.168 0 141.189 37.4683 141.189 90.3647C141.189 144.73 180.127 180.484 234.248 180.484ZM234.248 147.914C199.963 147.914 177.188 123.915 177.188 90.3647C177.188 55.3453 201.187 32.5705 234.248 32.5705C269.022 32.5705 291.552 56.5698 291.552 90.3647C291.552 125.384 267.553 147.914 234.248 147.914ZM423.016 177.056H387.752V35.9989H332.407V3.42847H478.361V35.9989H423.016V177.056ZM576.234 180.484C632.558 180.484 669.782 143.016 669.782 90.3647C669.782 35.9989 630.599 0 576.234 0C520.154 0 483.175 37.4683 483.175 90.3647C483.175 144.73 522.113 180.484 576.234 180.484ZM576.234 147.914C541.949 147.914 519.174 123.915 519.174 90.3647C519.174 55.3453 543.173 32.5705 576.234 32.5705C611.008 32.5705 633.538 56.5698 633.538 90.3647C633.538 125.384 609.539 147.914 576.234 147.914ZM817.874 112.65V3.42847H852.158V178.036H834.281L730.693 67.8347V177.056H696.408V2.44891H713.795L817.874 112.65Z" fill="white"/>
</svg>
