<?xml version="1.0" encoding="UTF-8" standalone="no"?><svg width="25" height="25" viewBox="0 0 25 25" fill="none" xmlns="http://www.w3.org/2000/svg">
<mask id="mask0_44_13" style="mask-type:alpha" maskUnits="userSpaceOnUse" x="0" y="0" width="25" height="25">
<rect x="0.75" y="0.25" width="24" height="24" fill="#D9D9D9"/>
</mask>
<g mask="url(#mask0_44_13)">
<path d="M1.75 20.25V17.45C1.75 16.8833 1.89583 16.3625 2.1875 15.8875C2.47917 15.4125 2.86667 15.05 3.35 14.8C4.38333 14.2833 5.43333 13.8958 6.5 13.6375C7.56667 13.3792 8.65 13.25 9.75 13.25C10.85 13.25 11.9333 13.3792 13 13.6375C14.0667 13.8958 15.1167 14.2833 16.15 14.8C16.6333 15.05 17.0208 15.4125 17.3125 15.8875C17.6042 16.3625 17.75 16.8833 17.75 17.45V20.25H1.75ZM19.75 20.25V17.25C19.75 16.5167 19.5458 15.8125 19.1375 15.1375C18.7292 14.4625 18.15 13.8833 17.4 13.4C18.25 13.5 19.05 13.6708 19.8 13.9125C20.55 14.1542 21.25 14.45 21.9 14.8C22.5 15.1333 22.9583 15.5042 23.275 15.9125C23.5917 16.3208 23.75 16.7667 23.75 17.25V20.25H19.75ZM9.75 12.25C8.65 12.25 7.70833 11.8583 6.925 11.075C6.14167 10.2917 5.75 9.35 5.75 8.25C5.75 7.15 6.14167 6.20833 6.925 5.425C7.70833 4.64167 8.65 4.25 9.75 4.25C10.85 4.25 11.7917 4.64167 12.575 5.425C13.3583 6.20833 13.75 7.15 13.75 8.25C13.75 9.35 13.3583 10.2917 12.575 11.075C11.7917 11.8583 10.85 12.25 9.75 12.25ZM19.75 8.25C19.75 9.35 19.3583 10.2917 18.575 11.075C17.7917 11.8583 16.85 12.25 15.75 12.25C15.5667 12.25 15.3333 12.2292 15.05 12.1875C14.7667 12.1458 14.5333 12.1 14.35 12.05C14.8 11.5167 15.1458 10.925 15.3875 10.275C15.6292 9.625 15.75 8.95 15.75 8.25C15.75 7.55 15.6292 6.875 15.3875 6.225C15.1458 5.575 14.8 4.98333 14.35 4.45C14.5833 4.36667 14.8167 4.3125 15.05 4.2875C15.2833 4.2625 15.5167 4.25 15.75 4.25C16.85 4.25 17.7917 4.64167 18.575 5.425C19.3583 6.20833 19.75 7.15 19.75 8.25ZM3.75 18.25H15.75V17.45C15.75 17.2667 15.7042 17.1 15.6125 16.95C15.5208 16.8 15.4 16.6833 15.25 16.6C14.35 16.15 13.4417 15.8125 12.525 15.5875C11.6083 15.3625 10.6833 15.25 9.75 15.25C8.81667 15.25 7.89167 15.3625 6.975 15.5875C6.05833 15.8125 5.15 16.15 4.25 16.6C4.1 16.6833 3.97917 16.8 3.8875 16.95C3.79583 17.1 3.75 17.2667 3.75 17.45V18.25ZM9.75 10.25C10.3 10.25 10.7708 10.0542 11.1625 9.6625C11.5542 9.27083 11.75 8.8 11.75 8.25C11.75 7.7 11.5542 7.22917 11.1625 6.8375C10.7708 6.44583 10.3 6.25 9.75 6.25C9.2 6.25 8.72917 6.44583 8.3375 6.8375C7.94583 7.22917 7.75 7.7 7.75 8.25C7.75 8.8 7.94583 9.27083 8.3375 9.6625C8.72917 10.0542 9.2 10.25 9.75 10.25Z" fill="white"/>
</g>
</svg>
