<?xml version="1.0" encoding="UTF-8" standalone="no"?><svg width="25" height="25" viewBox="0 0 25 25" fill="none" xmlns="http://www.w3.org/2000/svg">
<mask id="mask0_3_7" style="mask-type:alpha" maskUnits="userSpaceOnUse" x="0" y="0" width="25" height="25">
<rect x="0.75" y="0.25" width="24" height="24" fill="#D9D9D9"/>
</mask>
<g mask="url(#mask0_3_7)">
<path d="M11.75 11.25H13.75V4.25C13.75 3.96667 13.6542 3.72917 13.4625 3.5375C13.2709 3.34583 13.0334 3.25 12.75 3.25C12.4667 3.25 12.2292 3.34583 12.0375 3.5375C11.8459 3.72917 11.75 3.96667 11.75 4.25V11.25ZM5.75004 15.25H19.75V13.25H5.75004V15.25ZM4.30004 21.25H6.75004V19.25C6.75004 18.9667 6.84588 18.7292 7.03754 18.5375C7.22921 18.3458 7.46671 18.25 7.75004 18.25C8.03338 18.25 8.27088 18.3458 8.46254 18.5375C8.65421 18.7292 8.75004 18.9667 8.75004 19.25V21.25H11.75V19.25C11.75 18.9667 11.8459 18.7292 12.0375 18.5375C12.2292 18.3458 12.4667 18.25 12.75 18.25C13.0334 18.25 13.2709 18.3458 13.4625 18.5375C13.6542 18.7292 13.75 18.9667 13.75 19.25V21.25H16.75V19.25C16.75 18.9667 16.8459 18.7292 17.0375 18.5375C17.2292 18.3458 17.4667 18.25 17.75 18.25C18.0334 18.25 18.2709 18.3458 18.4625 18.5375C18.6542 18.7292 18.75 18.9667 18.75 19.25V21.25H21.2L20.2 17.25H5.30004L4.30004 21.25ZM21.2 23.25H4.30004C3.65004 23.25 3.12504 22.9917 2.72504 22.475C2.32504 21.9583 2.20838 21.3833 2.37504 20.75L3.75004 15.25V13.25C3.75004 12.7 3.94588 12.2292 4.33754 11.8375C4.72921 11.4458 5.20004 11.25 5.75004 11.25H9.75004V4.25C9.75004 3.41667 10.0417 2.70833 10.625 2.125C11.2084 1.54167 11.9167 1.25 12.75 1.25C13.5834 1.25 14.2917 1.54167 14.875 2.125C15.4584 2.70833 15.75 3.41667 15.75 4.25V11.25H19.75C20.3 11.25 20.7709 11.4458 21.1625 11.8375C21.5542 12.2292 21.75 12.7 21.75 13.25V15.25L23.125 20.75C23.3417 21.3833 23.2459 21.9583 22.8375 22.475C22.4292 22.9917 21.8834 23.25 21.2 23.25Z" fill="white"/>
</g>
</svg>
